{
	"asset":{
		"version":"2.0",
		"generator":"Created using the official Cinema 4D glTF Exporter 1.000x284978"
	},
	"scenes":[{
		"nodes":[0]
	}],
	"nodes":[{
		"name":"Extrude",
		"children":[1,
		2,
		3,
		4,
		5]
	},
	{
		"name":"Extrude",
		"mesh":0
	},
	{
		"name":"Extrude-Mat.2",
		"mesh":1
	},
	{
		"name":"Extrude-Mat.1",
		"mesh":2
	},
	{
		"name":"Extrude-Mat",
		"mesh":3
	},
	{
		"name":"Extrude-Mat",
		"mesh":4
	}],
	"meshes":[{
		"name":"Extrude",
		"primitives":[{
			"attributes":{
				"POSITION":1,
				"NORMAL":2,
				"TEXCOORD_0":3
			},
			"indices":0
		}]
	},
	{
		"name":"Extrude-Mat.2",
		"primitives":[{
			"attributes":{
				"POSITION":5,
				"NORMAL":6,
				"TEXCOORD_0":7
			},
			"material":0,
			"indices":4
		}]
	},
	{
		"name":"Extrude-Mat.1",
		"primitives":[{
			"attributes":{
				"POSITION":9,
				"NORMAL":10,
				"TEXCOORD_0":11
			},
			"material":1,
			"indices":8
		}]
	},
	{
		"name":"Extrude-Mat",
		"primitives":[{
			"attributes":{
				"POSITION":13,
				"NORMAL":14,
				"TEXCOORD_0":15
			},
			"material":2,
			"indices":12
		}]
	},
	{
		"name":"Extrude-Mat",
		"primitives":[{
			"attributes":{
				"POSITION":17,
				"NORMAL":18,
				"TEXCOORD_0":19
			},
			"material":2,
			"indices":16
		}]
	}],
	"accessors":[{
		"bufferView":0,
		"type":"SCALAR",
		"componentType":5123,
		"count":4224,
		"byteOffset":0,
		"min":[0],
		"max":[1575]
	},
	{
		"bufferView":1,
		"type":"VEC3",
		"componentType":5126,
		"count":1576,
		"byteOffset":0,
		"min":[-30.33888816833496,
		3.9640350341796877,
		0.0],
		"max":[30.841407775878908,
		26.94066047668457,
		2.0]
	},
	{
		"bufferView":1,
		"type":"VEC3",
		"componentType":5126,
		"count":1576,
		"byteOffset":12,
		"min":[-1.0,
		-1.0,
		0.0],
		"max":[1.0,
		1.0,
		0.0]
	},
	{
		"bufferView":1,
		"type":"VEC2",
		"componentType":5126,
		"count":1576,
		"byteOffset":24,
		"min":[0.0,
		0.0],
		"max":[1.0,
		1.0]
	},
	{
		"bufferView":2,
		"type":"SCALAR",
		"componentType":5123,
		"count":2058,
		"byteOffset":0,
		"min":[0],
		"max":[703]
	},
	{
		"bufferView":3,
		"type":"VEC3",
		"componentType":5126,
		"count":704,
		"byteOffset":0,
		"min":[-30.33888816833496,
		3.9640350341796877,
		0.0],
		"max":[30.841407775878908,
		26.94066047668457,
		0.0]
	},
	{
		"bufferView":3,
		"type":"VEC3",
		"componentType":5126,
		"count":704,
		"byteOffset":12,
		"min":[0.0,
		0.0,
		-1.0],
		"max":[0.0,
		0.0,
		-1.0]
	},
	{
		"bufferView":3,
		"type":"VEC2",
		"componentType":5126,
		"count":704,
		"byteOffset":24,
		"min":[0.0,
		0.0],
		"max":[1.0,
		0.37555593252182009]
	},
	{
		"bufferView":4,
		"type":"SCALAR",
		"componentType":5123,
		"count":237,
		"byteOffset":0,
		"min":[0],
		"max":[80]
	},
	{
		"bufferView":5,
		"type":"VEC3",
		"componentType":5126,
		"count":81,
		"byteOffset":0,
		"min":[-18.556110382080079,
		13.429272651672364,
		2.0],
		"max":[15.310555458068848,
		26.94066047668457,
		2.0]
	},
	{
		"bufferView":5,
		"type":"VEC3",
		"componentType":5126,
		"count":81,
		"byteOffset":12,
		"min":[0.0,
		0.0,
		1.0],
		"max":[0.0,
		0.0,
		1.0]
	},
	{
		"bufferView":5,
		"type":"VEC2",
		"componentType":5126,
		"count":81,
		"byteOffset":24,
		"min":[0.19259104132652284,
		0.0],
		"max":[0.7461460828781128,
		0.22084543108940125]
	},
	{
		"bufferView":6,
		"type":"SCALAR",
		"componentType":5123,
		"count":1791,
		"byteOffset":0,
		"min":[0],
		"max":[610]
	},
	{
		"bufferView":7,
		"type":"VEC3",
		"componentType":5126,
		"count":611,
		"byteOffset":0,
		"min":[-24.289669036865236,
		3.9640350341796877,
		2.0],
		"max":[30.841407775878908,
		15.73106575012207,
		2.0]
	},
	{
		"bufferView":7,
		"type":"VEC3",
		"componentType":5126,
		"count":611,
		"byteOffset":12,
		"min":[0.0,
		0.0,
		1.0],
		"max":[0.0,
		0.0,
		1.0]
	},
	{
		"bufferView":7,
		"type":"VEC2",
		"componentType":5126,
		"count":611,
		"byteOffset":24,
		"min":[0.09887528419494629,
		0.18322229385375977],
		"max":[1.0,
		0.37555593252182009]
	},
	{
		"bufferView":8,
		"type":"SCALAR",
		"componentType":5123,
		"count":30,
		"byteOffset":0,
		"min":[0],
		"max":[11]
	},
	{
		"bufferView":9,
		"type":"VEC3",
		"componentType":5126,
		"count":12,
		"byteOffset":0,
		"min":[-30.33888816833496,
		6.832327842712402,
		2.0],
		"max":[-25.047222137451173,
		15.616494178771973,
		2.0]
	},
	{
		"bufferView":9,
		"type":"VEC3",
		"componentType":5126,
		"count":12,
		"byteOffset":12,
		"min":[0.0,
		0.0,
		1.0],
		"max":[0.0,
		0.0,
		1.0]
	},
	{
		"bufferView":9,
		"type":"VEC2",
		"componentType":5126,
		"count":12,
		"byteOffset":24,
		"min":[0.0,
		0.18509498238563538],
		"max":[0.08649298548698425,
		0.3286733627319336]
	}],
	"bufferViews":[{
		"buffer":0,
		"byteOffset":0,
		"byteLength":8448,
		"target":34963
	},
	{
		"buffer":0,
		"byteOffset":8448,
		"byteLength":50432,
		"target":34962,
		"byteStride":32
	},
	{
		"buffer":1,
		"byteOffset":0,
		"byteLength":4116,
		"target":34963
	},
	{
		"buffer":1,
		"byteOffset":4116,
		"byteLength":22528,
		"target":34962,
		"byteStride":32
	},
	{
		"buffer":2,
		"byteOffset":0,
		"byteLength":474,
		"target":34963
	},
	{
		"buffer":2,
		"byteOffset":476,
		"byteLength":2592,
		"target":34962,
		"byteStride":32
	},
	{
		"buffer":3,
		"byteOffset":0,
		"byteLength":3582,
		"target":34963
	},
	{
		"buffer":3,
		"byteOffset":3584,
		"byteLength":19552,
		"target":34962,
		"byteStride":32
	},
	{
		"buffer":4,
		"byteOffset":0,
		"byteLength":60,
		"target":34963
	},
	{
		"buffer":4,
		"byteOffset":60,
		"byteLength":384,
		"target":34962,
		"byteStride":32
	}],
	"buffers":[{
		"uri":"data:application/octet-stream;base64,",
		"byteLength":58880
	},
	{
		"uri":"data:application/octet-stream;base64,",
		"byteLength":26644
	},
	{
		"uri":"data:application/octet-stream;base64,",
		"byteLength":3068
	},
	{
		"uri":"data:application/octet-stream;base64,",
		"byteLength":23136
	},
	{
		"uri":"data:application/octet-stream;base64,",
		"byteLength":444
	}],
	"materials":[{
		"pbrMetallicRoughness":{
			"baseColorFactor":[0.8,
			0.8,
			0.8,
			1.0],
			"metallicFactor":0.0,
			"roughnessFactor":0.5
		},
		"emissiveFactor":[0.0,
		0.0,
		0.0],
		"alphaMode":"OPAQUE",
		"doubleSided":false,
		"name":"Mat.2"
	},
	{
		"pbrMetallicRoughness":{
			"baseColorFactor":[0.0,
			0.9333333333333327,
			1.0,
			1.0],
			"metallicFactor":1.0,
			"roughnessFactor":1.0
		},
		"emissiveFactor":[0.0,
		0.0,
		0.0],
		"alphaMode":"OPAQUE",
		"doubleSided":false,
		"name":"Mat.1"
	},
	{
		"pbrMetallicRoughness":{
			"baseColorFactor":[0.0,
			0.2975000000000001,
			0.51,
			1.0],
			"metallicFactor":1.0,
			"roughnessFactor":1.0
		},
		"emissiveFactor":[0.0,
		0.0,
		0.0],
		"alphaMode":"OPAQUE",
		"doubleSided":false,
		"name":"Mat"
	}]
}